# AST/ASF file generated using VICON BodyLanguage
# -----------------------------------------------
:version 1.10
:name VICON
:units
  mass 1.0
  length 0.45
  angle deg
:documentation
   .ast/.asf automatically generated from VICON data using
   VICON BodyBuilder and BodyLanguage model FoxedUp or BRILLIANT.MOD
:root
   order TX TY TZ RX RY RZ
   axis XYZ
   position 0 0 0  
   orientation 0 0 0 
:bonedata
  begin
     id 1 
     name lhipjoint
     direction 0.577973 -0.728611 0.367523 
     length 2.48544 
     axis 0 0 0  XYZ
  end
  begin
     id 2 
     name lfemur
     direction 0.34202 -0.939693 0  
     length 7.1921  
     axis 0 0 20  XYZ
    dof rx ry rz
    limits (-160.0 20.0)
           (-70.0 70.0)
           (-60.0 70.0)
  end
  begin
     id 3 
     name ltibia
     direction 0.34202 -0.939693 0   
     length 7.71059   
     axis 0 0 20   XYZ
    dof rx
    limits (-10.0 170.0)
  end
  begin
     id 4 
     name lfoot
     direction 0.089538 -0.246004 0.965124   
     length 2.19909   
     axis -90 7.62852e-016 20   XYZ
    dof rx rz
    limits (-45.0 90.0)
           (-70.0 20.0)
  end
  begin
     id 5 
     name ltoes
     direction 1.53544e-011 -4.21829e-011 1   
     length 1.10116   
     axis -90 7.62852e-016 20   XYZ
    dof rx
    limits (-90.0 20.0)
  end
  begin
     id 6 
     name rhipjoint
     direction -0.554414 -0.743062 0.374812   
     length 2.4371  
     axis 0 0 0  XYZ 
  end
  begin
     id 7 
     name rfemur
     direction -0.34202 -0.939693 0   
     length 7.47254   
     axis 0 0 -20   XYZ
    dof rx ry rz
    limits (-160.0 20.0)
           (-70.0 70.0)
           (-70.0 60.0)
  end
  begin
     id 8 
     name rtibia
     direction -0.34202 -0.939693 0   
     length 7.65855   
     axis 0 0 -20   XYZ
    dof rx
    limits (-10.0 170.0)
 end
 begin
     id 9 
     name rfoot
     direction -0.133779 -0.367555 0.92033   
     length 2.43006  
     axis -90 -7.62852e-016 -20   XYZ
    dof rx rz
    limits (-45.0 90.0)
           (-20.0 70.0)
  end
  begin
     id 10 
     name rtoes
     direction -1.53563e-011 -4.21889e-011 1   
     length 1.19625   
     axis -90 -7.62852e-016 -20   XYZ
    dof rx
    limits (-90.0 20.0)
  end
  begin
     id 11 
     name lowerback
     direction 0.0249066 0.998043 -0.0573585   
     length 2.08485   
     axis 0 0 0   XYZ
    dof rx ry rz
    limits (-20.0 45.0)
           (-30.0 30.0)
           (-30.0 30.0)
  end
  begin
     id 12 
     name upperback
     direction 0.0237884 0.999673 0.00943178   
     length 2.08515   
     axis 0 0 0   XYZ
    dof rx ry rz
    limits (-20.0 45.0)
           (-30.0 30.0)
           (-30.0 30.0)
  end
  begin
     id 13 
     name thorax
     direction 0.0106671 0.999301 0.0358174   
     length 2.09037   
     axis 0 0 0   XYZ
    dof rx ry rz
    limits (-20.0 45.0)
           (-30.0 30.0)
           (-30.0 30.0)
  end
  begin
     id 14 
     name lowerneck
     direction -0.0580016 0.987052 0.149546   
     length 1.84454   
     axis 0 0 0   XYZ
    dof rx ry rz
    limits (-20.0 45.0)
           (-30.0 30.0)
           (-30.0 30.0)
  end
  begin
     id 15 
     name upperneck
     direction 0.079456 0.981963 -0.171567   
     length 1.88141   
     axis 0 0 0   XYZ
    dof rx ry rz
    limits (-20.0 45.0)
           (-30.0 30.0)
           (-30.0 30.0)
  end
  begin
     id 16
     name head
     direction 0.0262167 0.9967 -0.0768276  
     length 1.89541  
     axis 0 0 0   XYZ
    dof rx ry rz
    limits (-20.0 45.0)
           (-30.0 30.0)
           (-30.0 30.0)
  end
  begin
     id 17 
     name lclavicle
     direction 0.946135 0.322134 -0.0325326  
     length 3.949  
     axis 0 0 0   XYZ
    dof ry rz
    limits (-20.0 10.0)
           (0.0 20.0)
  end
  begin
     id 18 
     name lhumerus
     direction 1 -4.48964e-011 1.94005e-028   
     length 5.10995   
     axis 180 -30 -90   XYZ
    dof rx ry rz
    limits (-60.0 90.0)
           (-90.0 90.0)
           (-90.0 90.0)
  end
  begin
     id 19
     name lradius
     direction 1 -4.48976e-011 2.87852e-027   
     length 3.21207   
     axis 180 -30 -90   XYZ
    dof rx
    limits (-10.0 170.0)
  end
  begin
     id 20
     name lwrist
     direction 1 -4.48963e-011 1.9975e-027   
     length 1.60604   
     axis 2.96054e-016 90 90   XYZ
    dof ry
    limits (-180.0 0.0)
 end
  begin
     id 21 
     name lhand
     direction 1 -4.48919e-011 4.00227e-027   
     length 0.63349   
     axis -2.5488e-015 90 90   XYZ
    dof rx rz
    limits (-90.0 90.0)
           (-45.0 45.0)
  end
  begin
     id 22 
     name lfingers
     direction 1 -4.49037e-011 7.9652e-027   
     length 0.510736   
     axis -5.0975e-015 90 90   XYZ
    dof rx
    limits (0.0 90.0)
  end
  begin
     id 23
     name lthumb
     direction 0.707107 -6.34922e-011 0.707107   
     length 0.733318   
     axis -90 45 -4.48553e-014   XYZ
    dof rx rz
    limits (-45.0 45.0)
           (-45.0 45.0)
  end
  begin
     id 24 
     name rclavicle
     direction -0.940085 0.328911 -0.0897654   
     length 3.93848  
     axis 0 0 0   XYZ 
    dof ry rz
    limits (-10.0 20.0)
           (-20.0 0.0)
  end
  begin
     id 25 
     name rhumerus
     direction -1 -4.48958e-011 3.02044e-027  
     length 5.25109   
     axis 180 30 90   XYZ
    dof rx ry rz
    limits (-90.0 60.0)
           (-90.0 90.0)
           (-90.0 90.0)
  end
  begin
     id 26 
     name rradius
     direction -1 -4.4897e-011 9.78352e-028   
     length 3.28364   
     axis 180 30 90   XYZ
    dof rx
    limits (-10.0 170.0)
  end
  begin
     id 27 
     name rwrist
     direction -1 -4.48943e-011 1.99918e-027   
     length 1.64182   
     axis 2.96054e-016 -90 -90   XYZ
    dof ry
    limits (-180.0 0.0)
  end
  begin
     id 28
     name rhand
     direction -1 -4.49024e-011 3.98478e-027   
     length 0.599745   
     axis -2.5488e-015 -90 -90   XYZ
    dof rx rz
    limits (-90.0 90.0)
           (-45.0 45.0)
  end
  begin
     id 29
     name rfingers
     direction -1 -4.48914e-011 8.00621e-027   
     length 0.48353   
     axis -5.0975e-015 -90 -90   XYZ
    dof rx
    limits (0.0 90.0)
  end
  begin
     id 30
     name rthumb
     direction -0.707107 -6.34992e-011 0.707107   
     length 0.694255   
     axis -90 -45 4.48553e-014   XYZ
    dof rx rz
    limits (-45.0 45.0)
           (-45.0 45.0)
  end
:hierarchy
  begin
    root lhipjoint rhipjoint lowerback
    lhipjoint lfemur
    lfemur ltibia
    ltibia lfoot
    lfoot ltoes
    rhipjoint rfemur
    rfemur rtibia
    rtibia rfoot
    rfoot rtoes
    lowerback upperback
    upperback thorax
    thorax lowerneck lclavicle rclavicle
    lowerneck upperneck
    upperneck head
    lclavicle lhumerus
    lhumerus lradius
    lradius lwrist
    lwrist lhand lthumb
    lhand lfingers
    rclavicle rhumerus
    rhumerus rradius
    rradius rwrist
    rwrist rhand rthumb
    rhand rfingers
  end

#!OML:ASF E:\CV Data\Top Level 1\Subject 1\Session 1\player.ASF
:FULLY-SPECIFIED
:DEGREES
61
root 8.50058 16.9871 -4.58335 57.4577 -85.6943 -55.7559
lowerback 2.92007 2.40925 2.9878
upperback -1.15131 3.36738 2.40744
thorax -2.79381 1.63296 0.62737
lowerneck -16.6245 11.0703 -2.35187
upperneck 21.7428 15.2499 2.9446
head 9.12525 7.20628 3.23416
rclavicle 6.91149e-014 3.06128e-014
rhumerus -44.9863 38.482 -105.759
rradius 88.2726
rwrist -10.6191
rhand -26.0937 15.7823
rfingers 7.12502
rthumb 0.455239 -14.1969
lclavicle 6.91149e-014 3.06128e-014
lhumerus -44.0062 -33.4798 109.701
lradius 89.9758
lwrist 51.9273
lhand -17.0714 41.5713
lfingers 7.12502
lthumb 9.16641 71.3521
rfemur -17.8809 5.97025 25.3083
rtibia 43.6699
rfoot -25.9671 -9.33561
rtoes 9.78264
lfemur -17.603 0.689911 -13.1745
ltibia 40.8213
lfoot -19.6263 6.16928
ltoes -1.34966
62
root 8.50328 16.987 -4.58575 57.9404 -85.7386 -56.2384
lowerback 2.92589 2.42175 3.00786
upperback -1.14586 3.38476 2.40351
thorax -2.78992 1.64128 0.611205
lowerneck -16.6053 11.0907 -2.3572
upperneck 21.7459 15.2813 2.93536
head 9.12226 7.21948 3.23416
rclavicle -1.97542e-015 -1.15295e-014
rhumerus -44.9623 38.5408 -105.814
rradius 88.2583
rwrist -10.6481
rhand -26.0638 15.708
rfingers 7.12502
rthumb 0.484093 -14.2712
lclavicle -1.97542e-015 -1.15295e-014
lhumerus -44.0151 -33.5113 109.69
lradius 90.0072
lwrist 51.9111
lhand -17.1021 41.5688
lfingers 7.12502
lthumb 9.13686 71.3508
rfemur -17.9074 5.95083 25.2888
rtibia 43.6858
rfoot -25.9525 -9.25251
rtoes 9.79227
lfemur -17.5983 0.685141 -13.1867
ltibia 40.8162
lfoot -19.6164 6.21978
ltoes -1.3538
63
root 8.50633 16.9868 -4.58846 58.469 -85.7794 -56.7634
lowerback 2.93244 2.43553 3.03442
upperback -1.1428 3.40421 2.39733
thorax -2.78836 1.65043 0.588928
lowerneck -16.5967 11.1122 -2.3322
upperneck 21.7633 15.3098 2.91425
head 9.12991 7.23148 3.22746
rclavicle 3.46569e-014 6.36111e-015
rhumerus -44.9351 38.5841 -105.861
rradius 88.2474
rwrist -10.6718
rhand -26.0134 15.6443
rfingers 7.12502
rthumb 0.532843 -14.3347
lclavicle 3.46569e-014 6.36111e-015
lhumerus -44.0276 -33.5514 109.684
lradius 90.0215
lwrist 51.8
lhand -17.0774 41.5442
lfingers 7.12502
lthumb 9.16064 71.3252
rfemur -17.9385 5.94199 25.2751
rtibia 43.7013
rfoot -25.939 -9.17497
rtoes 9.81783
lfemur -17.5998 0.680657 -13.1926
ltibia 40.8137
lfoot -19.6069 6.26933
ltoes -1.35519
64
root 8.5099 16.9867 -4.59155 59.0268 -85.8135 -57.3134
lowerback 2.9409 2.4479 3.06684
upperback -1.14233 3.42218 2.39189
thorax -2.79027 1.65868 0.564087
lowerneck -16.5923 11.1334 -2.30198
upperneck 21.788 15.337 2.89278
head 9.14132 7.24288 3.2205
rclavicle 1.78782e-014 2.38542e-015
rhumerus -44.9039 38.6209 -105.895
rradius 88.2372
rwrist -10.6885
rhand -25.9605 15.6048
rfingers 7.12502
rthumb 0.583884 -14.3742
lclavicle 1.78782e-014 2.38542e-015
lhumerus -44.0383 -33.5902 109.679
lradius 90.0187
lwrist 51.606
lhand -17.0073 41.4999
lfingers 7.12502
lthumb 9.22834 71.278
rfemur -17.9756 5.94103 25.2705
rtibia 43.7164
rfoot -25.9245 -9.10837
rtoes 9.84794
lfemur -17.6104 0.676508 -13.1892
ltibia 40.8139
lfoot -19.5971 6.312
ltoes -1.34487
65
root 8.51403 16.9865 -4.59535 59.5779 -85.8422 -57.8517
lowerback 2.95148 2.45796 3.099
upperback -1.14487 3.43729 2.38729
thorax -2.79655 1.66542 0.540216
lowerneck -16.5658 11.1508 -2.30809
upperneck 21.791 15.3617 2.89334
head 9.13624 7.25411 3.22246
rclavicle -1.92138e-014 -1.90833e-014
rhumerus -44.8702 38.6534 -105.917
rradius 88.2275
rwrist -10.6911
rhand -25.9002 15.5816
rfingers 7.12502
rthumb 0.642161 -14.3971
lclavicle -1.92138e-014 -1.90833e-014
lhumerus -44.0445 -33.6282 109.657
lradius 90.0117
lwrist 51.3603
lhand -16.8754 41.443
lfingers 7.12502
lthumb 9.35556 71.2154
rfemur -18.0191 5.95239 25.2737
rtibia 43.7314
rfoot -25.9121 -9.05361
rtoes 9.90268
lfemur -17.631 0.683441 -13.1777
ltibia 40.8165
lfoot -19.5863 6.3411
ltoes -1.34045
66
root 8.51877 16.9862 -4.59985 60.0947 -85.8679 -58.352
lowerback 2.96461 2.46467 3.12477
upperback -1.14985 3.44796 2.38464
thorax -2.80731 1.67002 0.521932
lowerneck -16.5383 11.1699 -2.31306
upperneck 21.797 15.3883 2.89477
head 9.13198 7.26633 3.22484
rclavicle -7.88927e-016 -9.93923e-015
rhumerus -44.8341 38.6861 -105.926
rradius 88.2169
rwrist -10.6839
rhand -25.8458 15.5729
rfingers 7.12502
rthumb 0.694654 -14.4057
lclavicle -7.88927e-016 -9.93923e-015
lhumerus -44.0451 -33.6503 109.622
lradius 90.0018
lwrist 51.0909
lhand -16.6965 41.3734
lfingers 7.12502
lthumb 9.52814 71.138
rfemur -18.0683 5.96992 25.2823
rtibia 43.7468
rfoot -25.8983 -9.01302
rtoes 9.95483
lfemur -17.661 0.705164 -13.1615
ltibia 40.8212
lfoot -19.5745 6.35479
ltoes -1.34519
